<!--?xml version="1.0" standalone="no"?-->
              <svg id="sw-js-blob-svg" viewBox="0 0 100 100" xmlns="http://www.w3.org/2000/svg" version="1.1">
                    <defs> 
                        <linearGradient id="sw-gradient" x1="0" x2="1" y1="1" y2="0">
                            <stop id="stop1" stop-color="rgba(248, 117, 55, 1)" offset="0%"></stop>
                            <stop id="stop2" stop-color="rgba(251, 168, 31, 1)" offset="100%"></stop>
                        </linearGradient>
                    </defs>
                <path fill="url(#sw-gradient)" d="M19.7,-26.2C24,-19.9,24.9,-12.2,27.2,-4.1C29.6,4.1,33.3,12.8,30.9,18.8C28.5,24.8,20,28.1,11.2,31.6C2.5,35.1,-6.4,38.7,-14.7,37.1C-23,35.5,-30.5,28.8,-33.6,20.7C-36.6,12.7,-35.2,3.4,-32.2,-4.3C-29.2,-11.9,-24.6,-17.9,-19,-24C-13.4,-30.1,-6.7,-36.2,0.5,-36.8C7.7,-37.5,15.4,-32.5,19.7,-26.2Z" width="100%" height="100%" transform="translate(50 50)" stroke-width="0" style="transition: all 0.3s ease 0s;"></path>
              </svg>